<svg width="100%" viewBox="0 0 680 400" xmlns="http://www.w3.org/2000/svg">
<defs>
  <marker id="arrow" viewBox="0 0 10 10" refX="8" refY="5" markerWidth="6" markerHeight="6" orient="auto-start-reverse">
    <path d="M2 1L8 5L2 9" fill="none" stroke="context-stroke" stroke-width="1.5" stroke-linecap="round" stroke-linejoin="round"/>
  </marker>
</defs>

<text font-family="sans-serif" font-size="14" font-weight="500" x="160" y="24" text-anchor="middle" fill="#2C2C2A">Bi-encoder (retrieval)</text>
<text font-family="sans-serif" font-size="14" font-weight="500" x="510" y="24" text-anchor="middle" fill="#2C2C2A">Cross-encoder (re-ranking)</text>
<line x1="340" y1="16" x2="340" y2="380" stroke="#B4B2A9" stroke-width="0.5"/>

<rect x="40" y="40" width="100" height="36" rx="6" fill="#FAEEDA" stroke="#BA7517" stroke-width="0.5"/>
<text font-family="sans-serif" font-size="14" font-weight="500" x="90" y="62" text-anchor="middle" fill="#412402">Query</text>
<rect x="160" y="40" width="140" height="36" rx="6" fill="#F1EFE8" stroke="#888780" stroke-width="0.5"/>
<text font-family="sans-serif" font-size="14" font-weight="500" x="230" y="62" text-anchor="middle" fill="#2C2C2A">Document</text>

<line x1="90" y1="76" x2="90" y2="108" stroke="#888780" stroke-width="1" marker-end="url(#arrow)"/>
<line x1="230" y1="76" x2="230" y2="108" stroke="#888780" stroke-width="1" marker-end="url(#arrow)"/>

<rect x="40" y="110" width="100" height="44" rx="6" fill="#EEEDFE" stroke="#534AB7" stroke-width="0.5"/>
<text font-family="sans-serif" font-size="13" font-weight="500" x="90" y="128" text-anchor="middle" fill="#26215C">Encoder</text>
<text font-family="sans-serif" font-size="11" x="90" y="144" text-anchor="middle" fill="#3C3489">independent</text>
<rect x="160" y="110" width="140" height="44" rx="6" fill="#EEEDFE" stroke="#534AB7" stroke-width="0.5"/>
<text font-family="sans-serif" font-size="13" font-weight="500" x="230" y="128" text-anchor="middle" fill="#26215C">Encoder</text>
<text font-family="sans-serif" font-size="11" x="230" y="144" text-anchor="middle" fill="#3C3489">independent</text>

<line x1="90" y1="154" x2="90" y2="186" stroke="#888780" stroke-width="1" marker-end="url(#arrow)"/>
<line x1="230" y1="154" x2="230" y2="186" stroke="#888780" stroke-width="1" marker-end="url(#arrow)"/>

<rect x="40" y="188" width="100" height="36" rx="6" fill="#E1F5EE" stroke="#1D9E75" stroke-width="0.5"/>
<text font-family="sans-serif" font-size="12" font-weight="500" x="90" y="210" text-anchor="middle" fill="#085041">[0.2, 0.8…]</text>
<rect x="160" y="188" width="140" height="36" rx="6" fill="#E1F5EE" stroke="#1D9E75" stroke-width="0.5"/>
<text font-family="sans-serif" font-size="12" font-weight="500" x="230" y="210" text-anchor="middle" fill="#085041">[0.5, 0.1…]</text>

<line x1="90" y1="224" x2="160" y2="256" stroke="#888780" stroke-width="1" marker-end="url(#arrow)"/>
<line x1="230" y1="224" x2="190" y2="256" stroke="#888780" stroke-width="1" marker-end="url(#arrow)"/>

<rect x="100" y="258" width="160" height="36" rx="6" fill="#FAECE7" stroke="#993C1D" stroke-width="0.5"/>
<text font-family="sans-serif" font-size="13" font-weight="500" x="180" y="280" text-anchor="middle" fill="#4A1B0C">cosine similarity</text>

<text font-family="sans-serif" font-size="11" x="180" y="318" text-anchor="middle" fill="#888780">fast — docs pre-embedded</text>
<text font-family="sans-serif" font-size="11" x="180" y="334" text-anchor="middle" fill="#888780">approximate — no cross-attention</text>
<text font-family="sans-serif" font-size="11" x="180" y="350" text-anchor="middle" fill="#888780">scales to millions of docs</text>

<rect x="370" y="40" width="240" height="36" rx="6" fill="#FAEEDA" stroke="#BA7517" stroke-width="0.5"/>
<text font-family="sans-serif" font-size="13" font-weight="500" x="490" y="62" text-anchor="middle" fill="#412402">[Query] [SEP] [Document]</text>

<line x1="490" y1="76" x2="490" y2="108" stroke="#888780" stroke-width="1" marker-end="url(#arrow)"/>

<rect x="370" y="110" width="240" height="56" rx="6" fill="#EEEDFE" stroke="#534AB7" stroke-width="0.5"/>
<text font-family="sans-serif" font-size="13" font-weight="500" x="490" y="130" text-anchor="middle" fill="#26215C">Transformer</text>
<text font-family="sans-serif" font-size="11" x="490" y="148" text-anchor="middle" fill="#3C3489">full cross-attention between</text>
<text font-family="sans-serif" font-size="11" x="490" y="162" text-anchor="middle" fill="#3C3489">query and document tokens</text>

<line x1="490" y1="166" x2="490" y2="198" stroke="#888780" stroke-width="1" marker-end="url(#arrow)"/>

<rect x="400" y="200" width="180" height="44" rx="6" fill="#FAECE7" stroke="#993C1D" stroke-width="0.5"/>
<text font-family="sans-serif" font-size="13" font-weight="500" x="490" y="218" text-anchor="middle" fill="#4A1B0C">Relevance score</text>
<text font-family="sans-serif" font-size="11" x="490" y="236" text-anchor="middle" fill="#712B13">single float, e.g. 8.42</text>

<text font-family="sans-serif" font-size="11" x="490" y="290" text-anchor="middle" fill="#888780">slow — runs per (query, doc) pair</text>
<text font-family="sans-serif" font-size="11" x="490" y="306" text-anchor="middle" fill="#888780">highly accurate — sees both together</text>
<text font-family="sans-serif" font-size="11" x="490" y="322" text-anchor="middle" fill="#888780">only run on top 10–20 candidates</text>
</svg>
